# 3ds Max Wavefront OBJ Exporter v0.97b - (c)2007 guruware
# File Created: 21.09.2015 23:59:52

#
# object Walls_Dividers
#

v  -63.5000 0.0000 37.6000
v  -62.5000 0.0000 37.5000
v  -62.5000 0.0000 37.6000
v  -63.5000 0.0000 37.5000
v  -63.5000 5.0000 37.6000
v  -62.5000 5.0000 37.6000
v  -63.5000 5.0000 37.5000
v  -62.5000 5.0000 37.5000
v  12.5000 5.0000 37.5000
v  7.5000 5.0000 37.5000
v  12.5000 5.0000 37.6000
v  7.5000 5.0000 37.6000
v  7.5000 0.0000 37.5000
v  12.5000 0.0000 37.5000
v  7.5000 0.0000 37.6000
v  12.5000 0.0000 37.6000
v  -27.5000 5.0000 67.6000
v  -27.5000 5.0000 62.6000
v  -27.6000 5.0000 67.6000
v  -27.6000 5.0000 62.6000
v  -27.5000 0.0000 67.6000
v  -27.6000 0.0000 67.6000
v  -27.5000 0.0000 62.6000
v  -27.6000 0.0000 62.6000
v  -27.5000 5.0000 57.6000
v  -27.5000 5.0000 52.6000
v  -27.6000 5.0000 57.6000
v  -27.6000 5.0000 52.6000
v  -27.5000 0.0000 57.6000
v  -27.6000 0.0000 57.6000
v  -27.5000 0.0000 52.6000
v  -27.6000 0.0000 52.6000
v  -27.5000 5.0000 42.6000
v  -27.5000 5.0000 37.6000
v  -27.6000 5.0000 42.6000
v  -27.6000 5.0000 37.6000
v  -27.5000 0.0000 42.6000
v  -27.6000 0.0000 42.6000
v  -27.5000 0.0000 37.6000
v  -27.6000 0.0000 37.6000
v  -27.5000 5.0000 47.6000
v  -27.6000 5.0000 47.6000
v  -27.5000 0.0000 47.6000
v  -27.6000 0.0000 47.6000
v  -27.4000 5.0000 37.5000
v  -27.4000 5.0000 32.5000
v  -27.5000 5.0000 37.5000
v  -27.5000 5.0000 32.5000
v  -27.4000 0.0000 37.5000
v  -27.5000 0.0000 37.5000
v  -27.4000 0.0000 32.5000
v  -27.5000 0.0000 32.5000
v  -27.4000 5.0000 27.5000
v  -27.5000 5.0000 27.5000
v  -27.4000 0.0000 27.5000
v  -27.5000 0.0000 27.5000
v  -27.4000 5.0000 22.5000
v  -27.4000 5.0000 17.5000
v  -27.5000 5.0000 22.5000
v  -27.5000 5.0000 17.5000
v  -27.4000 0.0000 22.5000
v  -27.5000 0.0000 22.5000
v  -27.4000 0.0000 17.5000
v  -27.5000 0.0000 17.5000
v  -27.4000 5.0000 12.5000
v  -27.5000 5.0000 12.5000
v  -27.4000 0.0000 12.5000
v  -27.5000 0.0000 12.5000
v  -27.4000 5.0000 7.5000
v  -27.5000 5.0000 7.5000
v  -27.4000 0.0000 7.5000
v  -27.5000 0.0000 7.5000
v  -7.5000 5.0000 37.5000
v  -12.5000 5.0000 37.5000
v  -7.5000 5.0000 37.6000
v  -12.5000 5.0000 37.6000
v  -7.5000 0.0000 37.5000
v  -7.5000 0.0000 37.6000
v  -12.5000 0.0000 37.5000
v  -12.5000 0.0000 37.6000
v  2.5000 5.0000 37.5000
v  -2.5000 5.0000 37.5000
v  2.5000 5.0000 37.6000
v  -2.5000 5.0000 37.6000
v  2.5000 0.0000 37.5000
v  2.5000 0.0000 37.6000
v  -2.5000 0.0000 37.5000
v  -2.5000 0.0000 37.6000
v  -17.5000 5.0000 37.5000
v  -17.5000 5.0000 37.6000
v  -17.5000 0.0000 37.5000
v  -17.5000 0.0000 37.6000
v  -57.5000 5.0000 37.5000
v  -57.5000 5.0000 37.6000
v  -57.5000 0.0000 37.5000
v  -57.5000 0.0000 37.6000
v  -52.5000 5.0000 37.5000
v  -52.5000 5.0000 37.6000
v  -52.5000 0.0000 37.5000
v  -52.5000 0.0000 37.6000
v  -42.5000 5.0000 37.5000
v  -47.5000 5.0000 37.5000
v  -42.5000 5.0000 37.6000
v  -47.5000 5.0000 37.6000
v  -42.5000 0.0000 37.5000
v  -42.5000 0.0000 37.6000
v  -47.5000 0.0000 37.5000
v  -47.5000 0.0000 37.6000
v  -37.5000 5.0000 37.5000
v  -37.5000 5.0000 37.6000
v  -37.5000 0.0000 37.5000
v  -37.5000 0.0000 37.6000
v  -32.5000 5.0000 37.5000
v  -32.5000 5.0000 37.6000
v  -32.5000 0.0000 37.5000
v  -32.5000 0.0000 37.6000
v  -27.4000 5.0000 2.5000
v  -27.4000 5.0000 -2.5000
v  -27.5000 5.0000 2.5000
v  -27.5000 5.0000 -2.5000
v  -27.4000 0.0000 2.5000
v  -27.5000 0.0000 2.5000
v  -27.4000 0.0000 -2.5000
v  -27.5000 0.0000 -2.5000
v  -22.5000 5.0000 37.5000
v  -22.5000 5.0000 37.6000
v  -22.5000 0.0000 37.5000
v  -22.5000 0.0000 37.6000
v  -27.5000 5.0000 77.5000
v  -27.5000 5.0000 72.5000
v  -27.6000 5.0000 77.5000
v  -27.6000 5.0000 72.5000
v  -27.5000 0.0000 72.5000
v  -27.5000 0.0000 77.5000
v  -27.6000 0.0000 72.5000
v  -27.6000 0.0000 77.5000
v  -22.5000 0.0000 -2.5000
v  -22.5000 5.0000 -2.5000
v  -32.5000 0.0000 -2.5000
v  -32.5000 5.0000 -2.5000
v  -37.5000 0.0000 -2.5000
v  -37.5000 5.0000 -2.5000
v  -42.5000 0.0000 -2.5000
v  -42.5000 5.0000 -2.5000
v  -47.5000 0.0000 -2.5000
v  -47.5000 5.0000 -2.5000
v  -52.5000 0.0000 -2.5000
v  -52.5000 5.0000 -2.5000
v  -2.5000 0.0000 -2.5000
v  -2.5000 5.0000 -2.5000
v  -7.5000 0.0000 -2.5000
v  -7.5000 5.0000 -2.5000
v  -12.5000 0.0000 77.5000
v  -12.5000 5.0000 77.5000
v  -7.5000 0.0000 77.5000
v  -7.5000 5.0000 77.5000
v  -67.5000 0.0000 32.5000
v  -67.5000 5.0000 32.5000
v  -67.5000 0.0000 37.5000
v  -67.5000 5.0000 37.5000
v  -67.5000 0.0000 67.5000
v  -67.5000 5.0000 67.5000
v  -67.5000 0.0000 72.5000
v  -67.5000 5.0000 72.5000
v  -67.5000 0.0000 12.5000
v  -67.5000 5.0000 12.5000
v  -67.5000 0.0000 17.5000
v  -67.5000 5.0000 17.5000
v  12.5000 0.0000 -2.5000
v  12.5000 5.0000 -2.5000
v  7.5000 0.0000 -2.5000
v  7.5000 5.0000 -2.5000
v  -67.5000 0.0000 2.5000
v  -67.5000 5.0000 2.5000
v  -67.5000 0.0000 7.5000
v  -67.5000 5.0000 7.5000
v  12.5000 0.0000 77.5000
v  12.5000 5.0000 77.5000
v  12.5000 0.0000 72.5000
v  12.5000 5.0000 72.5000
v  -67.5000 0.0000 42.5000
v  -67.5000 5.0000 42.5000
v  12.5000 0.0000 32.5000
v  12.5000 5.0000 32.5000
v  12.5000 0.0000 57.5000
v  12.5000 5.0000 57.5000
v  12.5000 0.0000 52.5000
v  12.5000 5.0000 52.5000
v  12.5000 0.0000 27.5000
v  12.5000 5.0000 27.5000
v  12.5000 0.0000 22.5000
v  12.5000 5.0000 22.5000
v  12.5000 0.0000 17.5000
v  12.5000 5.0000 17.5000
v  -67.5000 0.0000 57.5000
v  -67.5000 5.0000 57.5000
v  -67.5000 0.0000 62.5000
v  -67.5000 5.0000 62.5000
v  -42.5000 0.0000 77.5000
v  -42.5000 5.0000 77.5000
v  -37.5000 0.0000 77.5000
v  -37.5000 5.0000 77.5000
v  -67.5000 0.0000 47.5000
v  -67.5000 5.0000 47.5000
v  -67.5000 0.0000 52.5000
v  -67.5000 5.0000 52.5000
v  12.5000 0.0000 67.5000
v  12.5000 5.0000 67.5000
v  -67.5000 0.0000 77.5000
v  -67.5000 5.0000 77.5000
v  -62.5000 0.0000 77.5000
v  -62.5000 5.0000 77.5000
v  -12.5000 0.0000 -2.5000
v  -12.5000 5.0000 -2.5000
v  -17.5000 0.0000 -2.5000
v  -17.5000 5.0000 -2.5000
v  -67.5000 0.0000 -2.5000
v  -67.5000 5.0000 -2.5000
v  -57.5000 0.0000 -2.5000
v  -57.5000 5.0000 -2.5000
v  -62.5000 0.0000 -2.5000
v  -62.5000 5.0000 -2.5000
v  -67.5000 0.0000 27.5000
v  -67.5000 5.0000 27.5000
v  -57.5000 0.0000 77.5000
v  -57.5000 5.0000 77.5000
v  -52.5000 0.0000 77.5000
v  -52.5000 5.0000 77.5000
v  -47.5000 0.0000 77.5000
v  -47.5000 5.0000 77.5000
v  12.5000 0.0000 2.5000
v  12.5000 5.0000 2.5000
v  2.5000 0.0000 -2.5000
v  2.5000 5.0000 -2.5000
v  -67.5000 0.0000 22.5000
v  -67.5000 5.0000 22.5000
v  12.5000 0.0000 47.5000
v  12.5000 5.0000 47.5000
v  -2.5000 0.0000 77.5000
v  -2.5000 5.0000 77.5000
v  2.5000 0.0000 77.5000
v  2.5000 5.0000 77.5000
v  7.5000 0.0000 77.5000
v  7.5000 5.0000 77.5000
v  -22.5000 0.0000 77.5000
v  -22.5000 5.0000 77.5000
v  -17.5000 0.0000 77.5000
v  -17.5000 5.0000 77.5000
v  12.5000 0.0000 42.5000
v  12.5000 5.0000 42.5000
v  12.5000 0.0000 62.5000
v  12.5000 5.0000 62.5000
v  12.5000 0.0000 12.5000
v  12.5000 5.0000 12.5000
v  12.5000 0.0000 7.5000
v  12.5000 5.0000 7.5000
v  -32.5000 0.0000 77.5000
v  -32.5000 5.0000 77.5000
# 258 vertices

vn 0.0000 -1.0000 -0.0000
vn 0.0000 0.0000 1.0000
vn 0.0000 1.0000 -0.0000
vn 0.0000 0.0000 -1.0000
vn -1.0000 0.0000 -0.0000
vn 1.0000 0.0000 -0.0000
# 6 vertex normals

vt 0.0587 0.2795 0.0000
vt 0.0913 0.2795 0.0000
vt 0.0587 0.2469 0.0000
vt 0.0913 0.2469 0.0000
vt 0.5619 0.6380 0.0000
vt 0.5619 0.5537 0.0000
vt 0.6462 0.6380 0.0000
vt 0.6462 0.5537 0.0000
vt 0.1337 0.1695 0.0000
vt 0.1337 0.2021 0.0000
vt 0.1010 0.1695 0.0000
vt 0.1010 0.2021 0.0000
vt 0.0913 0.2118 0.0000
vt 0.0913 0.2445 0.0000
vt 0.0587 0.2118 0.0000
vt 0.0587 0.2445 0.0000
vt 0.1857 0.0752 0.0000
vt 0.1857 0.0425 0.0000
vt 0.2183 0.0752 0.0000
vt 0.2183 0.0425 0.0000
# 20 texture coords

g Walls_Dividers
s 1
f 1/1/1 2/2/1 3/1/1 
f 4/2/1 2/2/1 1/1/1 
f 5/3/2 3/1/2 6/3/2 
f 1/1/2 3/1/2 5/3/2 
f 7/4/3 6/3/3 8/4/3 
f 5/3/3 6/3/3 7/4/3 
f 4/2/4 8/4/4 2/2/4 
f 7/4/4 8/4/4 4/2/4 
f 9/5/3 10/6/3 11/7/3 
f 10/6/3 12/8/3 11/7/3 
f 13/9/4 10/10/4 14/11/4 
f 10/10/4 9/12/4 14/11/4 
f 15/1/5 12/3/5 13/2/5 
f 12/3/5 10/4/5 13/2/5 
f 16/13/2 11/14/2 15/15/2 
f 11/14/2 12/16/2 15/15/2 
f 17/5/3 18/6/3 19/7/3 
f 18/6/3 20/8/3 19/7/3 
f 21/17/2 17/18/2 22/19/2 
f 17/18/2 19/20/2 22/19/2 
f 23/9/6 18/10/6 21/11/6 
f 18/10/6 17/12/6 21/11/6 
f 24/1/4 20/3/4 23/2/4 
f 20/3/4 18/4/4 23/2/4 
f 22/13/5 19/14/5 24/15/5 
f 19/14/5 20/16/5 24/15/5 
f 25/5/3 26/6/3 27/7/3 
f 26/6/3 28/8/3 27/7/3 
f 29/17/2 25/18/2 30/19/2 
f 25/18/2 27/20/2 30/19/2 
f 31/9/6 26/10/6 29/11/6 
f 26/10/6 25/12/6 29/11/6 
f 32/1/4 28/3/4 31/2/4 
f 28/3/4 26/4/4 31/2/4 
f 30/13/5 27/14/5 32/15/5 
f 27/14/5 28/16/5 32/15/5 
f 33/5/3 34/6/3 35/7/3 
f 34/6/3 36/8/3 35/7/3 
f 37/17/2 33/18/2 38/19/2 
f 33/18/2 35/20/2 38/19/2 
f 39/9/6 34/10/6 37/11/6 
f 34/10/6 33/12/6 37/11/6 
f 40/1/4 36/3/4 39/2/4 
f 36/3/4 34/4/4 39/2/4 
f 38/13/5 35/14/5 40/15/5 
f 35/14/5 36/16/5 40/15/5 
f 41/5/3 33/6/3 42/7/3 
f 33/6/3 35/8/3 42/7/3 
f 43/17/2 41/18/2 44/19/2 
f 41/18/2 42/20/2 44/19/2 
f 37/9/6 33/10/6 43/11/6 
f 33/10/6 41/12/6 43/11/6 
f 38/1/4 35/3/4 37/2/4 
f 35/3/4 33/4/4 37/2/4 
f 44/13/5 42/14/5 38/15/5 
f 42/14/5 35/16/5 38/15/5 
f 26/5/3 41/6/3 28/7/3 
f 41/6/3 42/8/3 28/7/3 
f 31/17/2 26/18/2 32/19/2 
f 26/18/2 28/20/2 32/19/2 
f 43/9/6 41/10/6 31/11/6 
f 41/10/6 26/12/6 31/11/6 
f 44/1/4 42/3/4 43/2/4 
f 42/3/4 41/4/4 43/2/4 
f 32/13/5 28/14/5 44/15/5 
f 28/14/5 42/16/5 44/15/5 
f 45/5/3 46/6/3 47/7/3 
f 46/6/3 48/8/3 47/7/3 
f 49/17/2 45/18/2 50/19/2 
f 45/18/2 47/20/2 50/19/2 
f 51/9/6 46/10/6 49/11/6 
f 46/10/6 45/12/6 49/11/6 
f 52/1/4 48/3/4 51/2/4 
f 48/3/4 46/4/4 51/2/4 
f 50/13/5 47/14/5 52/15/5 
f 47/14/5 48/16/5 52/15/5 
f 46/5/3 53/6/3 48/7/3 
f 53/6/3 54/8/3 48/7/3 
f 51/17/2 46/18/2 52/19/2 
f 46/18/2 48/20/2 52/19/2 
f 55/9/6 53/10/6 51/11/6 
f 53/10/6 46/12/6 51/11/6 
f 56/1/4 54/3/4 55/2/4 
f 54/3/4 53/4/4 55/2/4 
f 52/13/5 48/14/5 56/15/5 
f 48/14/5 54/16/5 56/15/5 
f 57/5/3 58/6/3 59/7/3 
f 58/6/3 60/8/3 59/7/3 
f 61/17/2 57/18/2 62/19/2 
f 57/18/2 59/20/2 62/19/2 
f 63/9/6 58/10/6 61/11/6 
f 58/10/6 57/12/6 61/11/6 
f 64/1/4 60/3/4 63/2/4 
f 60/3/4 58/4/4 63/2/4 
f 62/13/5 59/14/5 64/15/5 
f 59/14/5 60/16/5 64/15/5 
f 53/5/3 57/6/3 54/7/3 
f 57/6/3 59/8/3 54/7/3 
f 55/17/2 53/18/2 56/19/2 
f 53/18/2 54/20/2 56/19/2 
f 61/9/6 57/10/6 55/11/6 
f 57/10/6 53/12/6 55/11/6 
f 62/1/4 59/3/4 61/2/4 
f 59/3/4 57/4/4 61/2/4 
f 56/13/5 54/14/5 62/15/5 
f 54/14/5 59/16/5 62/15/5 
f 58/5/3 65/6/3 60/7/3 
f 65/6/3 66/8/3 60/7/3 
f 63/17/2 58/18/2 64/19/2 
f 58/18/2 60/20/2 64/19/2 
f 67/9/6 65/10/6 63/11/6 
f 65/10/6 58/12/6 63/11/6 
f 68/1/4 66/3/4 67/2/4 
f 66/3/4 65/4/4 67/2/4 
f 64/13/5 60/14/5 68/15/5 
f 60/14/5 66/16/5 68/15/5 
f 65/5/3 69/6/3 66/7/3 
f 69/6/3 70/8/3 66/7/3 
f 67/17/2 65/18/2 68/19/2 
f 65/18/2 66/20/2 68/19/2 
f 71/9/6 69/10/6 67/11/6 
f 69/10/6 65/12/6 67/11/6 
f 72/1/4 70/3/4 71/2/4 
f 70/3/4 69/4/4 71/2/4 
f 68/13/5 66/14/5 72/15/5 
f 66/14/5 70/16/5 72/15/5 
f 73/5/3 74/6/3 75/7/3 
f 74/6/3 76/8/3 75/7/3 
f 77/17/6 73/18/6 78/19/6 
f 73/18/6 75/20/6 78/19/6 
f 79/9/4 74/10/4 77/11/4 
f 74/10/4 73/12/4 77/11/4 
f 80/1/5 76/3/5 79/2/5 
f 76/3/5 74/4/5 79/2/5 
f 78/13/2 75/14/2 80/15/2 
f 75/14/2 76/16/2 80/15/2 
f 81/5/3 82/6/3 83/7/3 
f 82/6/3 84/8/3 83/7/3 
f 85/17/6 81/18/6 86/19/6 
f 81/18/6 83/20/6 86/19/6 
f 87/9/4 82/10/4 85/11/4 
f 82/10/4 81/12/4 85/11/4 
f 88/1/5 84/3/5 87/2/5 
f 84/3/5 82/4/5 87/2/5 
f 86/13/2 83/14/2 88/15/2 
f 83/14/2 84/16/2 88/15/2 
f 82/5/3 73/6/3 84/7/3 
f 73/6/3 75/8/3 84/7/3 
f 87/17/6 82/18/6 88/19/6 
f 82/18/6 84/20/6 88/19/6 
f 77/9/4 73/10/4 87/11/4 
f 73/10/4 82/12/4 87/11/4 
f 78/1/5 75/3/5 77/2/5 
f 75/3/5 73/4/5 77/2/5 
f 88/13/2 84/14/2 78/15/2 
f 84/14/2 75/16/2 78/15/2 
f 10/5/3 81/6/3 12/7/3 
f 81/6/3 83/8/3 12/7/3 
f 13/17/6 10/18/6 15/19/6 
f 10/18/6 12/20/6 15/19/6 
f 85/9/4 81/10/4 13/11/4 
f 81/10/4 10/12/4 13/11/4 
f 86/1/5 83/3/5 85/2/5 
f 83/3/5 81/4/5 85/2/5 
f 15/13/2 12/14/2 86/15/2 
f 12/14/2 83/16/2 86/15/2 
f 74/5/3 89/6/3 76/7/3 
f 89/6/3 90/8/3 76/7/3 
f 79/17/6 74/18/6 80/19/6 
f 74/18/6 76/20/6 80/19/6 
f 91/9/4 89/10/4 79/11/4 
f 89/10/4 74/12/4 79/11/4 
f 92/1/5 90/3/5 91/2/5 
f 90/3/5 89/4/5 91/2/5 
f 80/13/2 76/14/2 92/15/2 
f 76/14/2 90/16/2 92/15/2 
f 93/5/3 8/6/3 94/7/3 
f 8/6/3 6/8/3 94/7/3 
f 95/17/6 93/18/6 96/19/6 
f 93/18/6 94/20/6 96/19/6 
f 2/9/4 8/10/4 95/11/4 
f 8/10/4 93/12/4 95/11/4 
f 1/1/5 5/3/5 4/2/5 
f 5/3/5 7/4/5 4/2/5 
f 96/13/2 94/14/2 3/15/2 
f 94/14/2 6/16/2 3/15/2 
f 97/5/3 93/6/3 98/7/3 
f 93/6/3 94/8/3 98/7/3 
f 99/17/6 97/18/6 100/19/6 
f 97/18/6 98/20/6 100/19/6 
f 95/9/4 93/10/4 99/11/4 
f 93/10/4 97/12/4 99/11/4 
f 96/1/5 94/3/5 95/2/5 
f 94/3/5 93/4/5 95/2/5 
f 100/13/2 98/14/2 96/15/2 
f 98/14/2 94/16/2 96/15/2 
f 101/5/3 102/6/3 103/7/3 
f 102/6/3 104/8/3 103/7/3 
f 105/17/6 101/18/6 106/19/6 
f 101/18/6 103/20/6 106/19/6 
f 107/9/4 102/10/4 105/11/4 
f 102/10/4 101/12/4 105/11/4 
f 108/1/5 104/3/5 107/2/5 
f 104/3/5 102/4/5 107/2/5 
f 106/13/2 103/14/2 108/15/2 
f 103/14/2 104/16/2 108/15/2 
f 102/5/3 97/6/3 104/7/3 
f 97/6/3 98/8/3 104/7/3 
f 107/17/6 102/18/6 108/19/6 
f 102/18/6 104/20/6 108/19/6 
f 99/9/4 97/10/4 107/11/4 
f 97/10/4 102/12/4 107/11/4 
f 100/1/5 98/3/5 99/2/5 
f 98/3/5 97/4/5 99/2/5 
f 108/13/2 104/14/2 100/15/2 
f 104/14/2 98/16/2 100/15/2 
f 109/5/3 101/6/3 110/7/3 
f 101/6/3 103/8/3 110/7/3 
f 111/17/6 109/18/6 112/19/6 
f 109/18/6 110/20/6 112/19/6 
f 105/9/4 101/10/4 111/11/4 
f 101/10/4 109/12/4 111/11/4 
f 106/1/5 103/3/5 105/2/5 
f 103/3/5 101/4/5 105/2/5 
f 112/13/2 110/14/2 106/15/2 
f 110/14/2 103/16/2 106/15/2 
f 113/5/3 109/6/3 114/7/3 
f 109/6/3 110/8/3 114/7/3 
f 115/17/6 113/18/6 116/19/6 
f 113/18/6 114/20/6 116/19/6 
f 111/9/4 109/10/4 115/11/4 
f 109/10/4 113/12/4 115/11/4 
f 112/1/5 110/3/5 111/2/5 
f 110/3/5 109/4/5 111/2/5 
f 116/13/2 114/14/2 112/15/2 
f 114/14/2 110/16/2 112/15/2 
f 47/5/3 113/6/3 34/7/3 
f 113/6/3 114/8/3 34/7/3 
f 50/17/6 47/18/6 39/19/6 
f 47/18/6 34/20/6 39/19/6 
f 115/9/4 113/10/4 50/11/4 
f 113/10/4 47/12/4 50/11/4 
f 116/1/5 114/3/5 115/2/5 
f 114/3/5 113/4/5 115/2/5 
f 39/13/2 34/14/2 116/15/2 
f 34/14/2 114/16/2 116/15/2 
f 117/5/3 118/6/3 119/7/3 
f 118/6/3 120/8/3 119/7/3 
f 121/17/2 117/18/2 122/19/2 
f 117/18/2 119/20/2 122/19/2 
f 123/9/6 118/10/6 121/11/6 
f 118/10/6 117/12/6 121/11/6 
f 122/13/5 119/14/5 124/15/5 
f 119/14/5 120/16/5 124/15/5 
f 18/5/3 25/6/3 20/7/3 
f 25/6/3 27/8/3 20/7/3 
f 23/17/2 18/18/2 24/19/2 
f 18/18/2 20/20/2 24/19/2 
f 29/9/6 25/10/6 23/11/6 
f 25/10/6 18/12/6 23/11/6 
f 30/1/4 27/3/4 29/2/4 
f 27/3/4 25/4/4 29/2/4 
f 24/13/5 20/14/5 30/15/5 
f 20/14/5 27/16/5 30/15/5 
f 125/5/3 47/6/3 126/7/3 
f 47/6/3 34/8/3 126/7/3 
f 127/17/6 125/18/6 128/19/6 
f 125/18/6 126/20/6 128/19/6 
f 50/9/4 47/10/4 127/11/4 
f 47/10/4 125/12/4 127/11/4 
f 39/1/5 34/3/5 50/2/5 
f 34/3/5 47/4/5 50/2/5 
f 128/13/2 126/14/2 39/15/2 
f 126/14/2 34/16/2 39/15/2 
f 129/5/3 130/6/3 131/7/3 
f 130/6/3 132/8/3 131/7/3 
f 133/9/6 130/10/6 134/11/6 
f 130/10/6 129/12/6 134/11/6 
f 135/1/4 132/3/4 133/2/4 
f 132/3/4 130/4/4 133/2/4 
f 136/13/5 131/14/5 135/15/5 
f 131/14/5 132/16/5 135/15/5 
f 137/13/2 138/14/2 124/15/2 
f 138/14/2 120/16/2 124/15/2 
f 139/13/2 140/14/2 141/15/2 
f 140/14/2 142/16/2 141/15/2 
f 143/13/2 144/14/2 145/15/2 
f 144/14/2 146/16/2 145/15/2 
f 145/13/2 146/14/2 147/15/2 
f 146/14/2 148/16/2 147/15/2 
f 149/13/2 150/14/2 151/15/2 
f 150/14/2 152/16/2 151/15/2 
f 153/9/4 154/10/4 155/11/4 
f 154/10/4 156/12/4 155/11/4 
f 157/17/6 158/18/6 159/19/6 
f 158/18/6 160/20/6 159/19/6 
f 161/17/6 162/18/6 163/19/6 
f 162/18/6 164/20/6 163/19/6 
f 165/17/6 166/18/6 167/19/6 
f 166/18/6 168/20/6 167/19/6 
f 169/13/2 170/14/2 171/15/2 
f 170/14/2 172/16/2 171/15/2 
f 173/17/6 174/18/6 175/19/6 
f 174/18/6 176/20/6 175/19/6 
f 177/1/5 178/3/5 179/2/5 
f 178/3/5 180/4/5 179/2/5 
f 159/17/6 160/18/6 181/19/6 
f 160/18/6 182/20/6 181/19/6 
f 14/1/5 9/3/5 183/2/5 
f 9/3/5 184/4/5 183/2/5 
f 185/1/5 186/3/5 187/2/5 
f 186/3/5 188/4/5 187/2/5 
f 183/1/5 184/3/5 189/2/5 
f 184/3/5 190/4/5 189/2/5 
f 191/1/5 192/3/5 193/2/5 
f 192/3/5 194/4/5 193/2/5 
f 195/17/6 196/18/6 197/19/6 
f 196/18/6 198/20/6 197/19/6 
f 199/9/4 200/10/4 201/11/4 
f 200/10/4 202/12/4 201/11/4 
f 203/17/6 204/18/6 205/19/6 
f 204/18/6 206/20/6 205/19/6 
f 197/17/6 198/18/6 161/19/6 
f 198/18/6 162/20/6 161/19/6 
f 179/1/5 180/3/5 207/2/5 
f 180/3/5 208/4/5 207/2/5 
f 205/17/6 206/18/6 195/19/6 
f 206/18/6 196/20/6 195/19/6 
f 209/9/4 210/10/4 211/11/4 
f 210/10/4 212/12/4 211/11/4 
f 213/13/2 214/14/2 215/15/2 
f 214/14/2 216/16/2 215/15/2 
f 217/17/6 218/18/6 173/19/6 
f 218/18/6 174/20/6 173/19/6 
f 219/13/2 220/14/2 221/15/2 
f 220/14/2 222/16/2 221/15/2 
f 223/17/6 224/18/6 157/19/6 
f 224/18/6 158/20/6 157/19/6 
f 225/9/4 226/10/4 227/11/4 
f 226/10/4 228/12/4 227/11/4 
f 229/9/4 230/10/4 199/11/4 
f 230/10/4 200/12/4 199/11/4 
f 231/1/5 232/3/5 169/2/5 
f 232/3/5 170/4/5 169/2/5 
f 233/13/2 234/14/2 149/15/2 
f 234/14/2 150/16/2 149/15/2 
f 235/17/6 236/18/6 223/19/6 
f 236/18/6 224/20/6 223/19/6 
f 187/1/5 188/3/5 237/2/5 
f 188/3/5 238/4/5 237/2/5 
f 239/9/4 240/10/4 241/11/4 
f 240/10/4 242/12/4 241/11/4 
f 221/13/2 222/14/2 217/15/2 
f 222/14/2 218/16/2 217/15/2 
f 155/9/4 156/10/4 239/11/4 
f 156/10/4 240/12/4 239/11/4 
f 241/9/4 242/10/4 243/11/4 
f 242/10/4 244/12/4 243/11/4 
f 245/9/4 246/10/4 247/11/4 
f 246/10/4 248/12/4 247/11/4 
f 171/13/2 172/14/2 233/15/2 
f 172/14/2 234/16/2 233/15/2 
f 181/17/6 182/18/6 203/19/6 
f 182/18/6 204/20/6 203/19/6 
f 175/17/6 176/18/6 165/19/6 
f 176/18/6 166/20/6 165/19/6 
f 237/1/5 238/3/5 249/2/5 
f 238/3/5 250/4/5 249/2/5 
f 207/1/5 208/3/5 251/2/5 
f 208/3/5 252/4/5 251/2/5 
f 215/13/2 216/14/2 137/15/2 
f 216/14/2 138/16/2 137/15/2 
f 134/9/4 129/10/4 245/11/4 
f 129/10/4 246/12/4 245/11/4 
f 227/9/4 228/10/4 229/11/4 
f 228/10/4 230/12/4 229/11/4 
f 211/9/4 212/10/4 225/11/4 
f 212/10/4 226/12/4 225/11/4 
f 147/13/2 148/14/2 219/15/2 
f 148/14/2 220/16/2 219/15/2 
f 243/9/4 244/10/4 177/11/4 
f 244/10/4 178/12/4 177/11/4 
f 151/13/2 152/14/2 213/15/2 
f 152/14/2 214/16/2 213/15/2 
f 253/1/5 254/3/5 255/2/5 
f 254/3/5 256/4/5 255/2/5 
f 247/9/4 248/10/4 153/11/4 
f 248/10/4 154/12/4 153/11/4 
f 251/1/5 252/3/5 185/2/5 
f 252/3/5 186/4/5 185/2/5 
f 141/13/2 142/14/2 143/15/2 
f 142/14/2 144/16/2 143/15/2 
f 167/17/6 168/18/6 235/19/6 
f 168/18/6 236/20/6 235/19/6 
f 124/13/2 120/14/2 139/15/2 
f 120/14/2 140/16/2 139/15/2 
f 201/9/4 202/10/4 257/11/4 
f 202/10/4 258/12/4 257/11/4 
f 257/9/4 258/10/4 134/11/4 
f 258/10/4 129/12/4 134/11/4 
f 163/17/6 164/18/6 209/19/6 
f 164/18/6 210/20/6 209/19/6 
f 189/1/5 190/3/5 191/2/5 
f 190/3/5 192/4/5 191/2/5 
f 193/1/5 194/3/5 253/2/5 
f 194/3/5 254/4/5 253/2/5 
f 249/1/5 250/3/5 14/2/5 
f 250/3/5 9/4/5 14/2/5 
f 255/1/5 256/3/5 231/2/5 
f 256/3/5 232/4/5 231/2/5 
# 0 polygons - 410 triangles

